<?xml version="1.0" encoding="utf-8"?>
<!-- Generator: Adobe Illustrator 16.0.0, SVG Export Plug-In . SVG Version: 6.00 Build 0)  -->
<!DOCTYPE svg PUBLIC "-//W3C//DTD SVG 1.1//EN" "http://www.w3.org/Graphics/SVG/1.1/DTD/svg11.dtd">
<svg version="1.1" id="Layer_1" xmlns="http://www.w3.org/2000/svg" xmlns:xlink="http://www.w3.org/1999/xlink" x="0px" y="0px"
	 width="640px" height="480px" viewBox="0 0 640 480" enable-background="new 0 0 640 480" xml:space="preserve">
<g>
	<g>
		<path fill="#1E4896" d="M417.749,310.439v41.941H305.933c-30.883,0-57.242-10.929-79.071-32.79
			c-1.962-1.965-3.806-3.981-5.593-6.021c-19.287,24.116-43.09,44.665-70.223,60.419l60.983,35.256
			c32.948-15.188,69.798-23.705,108.712-23.705c38.584,0,75.129,8.392,107.865,23.337l60.356-34.895
			c0.231-0.133,0.453-0.295,0.679-0.435C461.671,357.174,437.275,335.682,417.749,310.439z"/>
		<path fill="#1E4896" d="M305.933,296.4h47.917v-31.989h-31.944v-5.715c-0.392-0.002-0.774-0.014-1.163-0.014
			c-19.995,0-39.642,1.414-58.866,4.091c2.34,6.258,5.713,12.011,10.194,17.23C281.443,290.938,292.728,296.4,305.933,296.4z"/>
		<path fill="#1E4896" d="M305.933,128.454h63.712c3.991-27.078,12.536-52.729,24.844-76.22l-43.453-25.126
			c-17.069-9.869-45-9.869-62.075,0l-42.319,24.469c13.232,25.05,22.186,52.574,25.869,81.681
			C282.991,130.064,294.13,128.454,305.933,128.454z"/>
		<path fill="#47C6EF" d="M212.03,409.246l76.931,44.477c17.075,9.872,45.006,9.872,62.075,0l77.571-44.845
			c-32.736-14.945-69.281-23.337-107.865-23.337C281.828,385.541,244.979,394.06,212.03,409.246z"/>
		<path fill="#47C6EF" d="M507.887,125.327c-37.693,18.685-78.771,31.883-122.086,38.543v20.567h-17.713
			c0.964,10.884,2.649,21.562,5.033,31.989h44.628v53.45c36.181,8.472,70.5,21.561,102.251,38.62V160.68
			C519.999,149.17,515.228,136.151,507.887,125.327z"/>
		<path fill="#008CCF" d="M417.749,310.439c19.527,25.241,43.922,46.733,71.894,63.109c16.758-10.111,30.356-33.923,30.356-53.392
			v-11.662c-31.751-17.061-66.069-30.148-102.251-38.62L417.749,310.439L417.749,310.439z"/>
		<path fill="#008CCF" d="M385.801,128.454v35.416c43.315-6.66,84.393-19.858,122.086-38.543
			c-5.253-7.739-11.808-14.365-18.923-18.481l-94.475-54.61c-12.308,23.489-20.853,49.142-24.844,76.22L385.801,128.454
			L385.801,128.454z"/>
		<path fill="#47C6EF" d="M194.119,240.419c0-30.923,10.916-57.315,32.743-79.175c0.796-0.795,1.61-1.549,2.419-2.312
			c-34.063-7.485-66.519-19.045-96.788-34.159C124.938,135.706,120,148.97,120,160.68v148.617
			c25.057-13.599,51.74-24.724,79.689-33.044C195.997,265.07,194.119,253.132,194.119,240.419z"/>
		<path fill="#008CCF" d="M368.088,184.438h-62.155c-13.206,0-24.49,5.467-33.863,16.395c-0.315,0.369-0.582,0.76-0.891,1.135
			c-8.751,10.71-13.167,23.515-13.167,38.452c0,2.844,0.214,5.584,0.529,8.277c0.583,4.947,1.677,9.646,3.333,14.078
			c19.224-2.677,38.87-4.091,58.866-4.091c0.388,0,0.771,0.012,1.163,0.014v-42.271h51.216
			C370.737,205.999,369.052,195.32,368.088,184.438z"/>
		<path fill="#008CCF" d="M221.27,313.571c-9.908-11.312-17.104-23.75-21.581-37.318c-27.95,8.32-54.632,19.445-79.689,33.044
			v10.861c0,19.738,13.966,43.956,31.036,53.825l0.011,0.007C178.179,358.236,201.983,337.688,221.27,313.571z"/>
		<path fill="#008CCF" d="M272.511,133.258c-3.683-29.106-12.636-56.631-25.869-81.681l-95.606,55.269
			c-6.942,4.019-13.352,10.429-18.542,17.927c30.27,15.114,62.726,26.674,96.788,34.159
			C242.166,146.684,256.567,138.114,272.511,133.258z"/>
	</g>
</g>
</svg>
